<svg width="183" height="108" viewBox="0 0 183 108" fill="none" xmlns="http://www.w3.org/2000/svg">
<g clip-path="url(#clip0_7_92)">
<rect width="183" height="108" fill="#212121"/>
<mask id="path-1-inside-1_7_92" fill="white">
<path d="M51.0919 12.9081C47.3159 9.1321 42.5049 6.5606 37.2674 5.5188C32.0299 4.477 26.6011 5.01169 21.6675 7.05525C16.7339 9.09882 12.5171 12.5595 9.55032 16.9996C6.58352 21.4397 5 26.6599 5 32C5 37.3401 6.58352 42.5603 9.55032 47.0004C12.5171 51.4405 16.7339 54.9012 21.6676 56.9447C26.6012 58.9883 32.03 59.523 37.2674 58.4812C42.5049 57.4394 47.3159 54.8679 51.0919 51.0919L32 32L51.0919 12.9081Z"/>
</mask>
<path d="M51.0919 12.9081C47.3159 9.1321 42.5049 6.5606 37.2674 5.5188C32.0299 4.477 26.6011 5.01169 21.6675 7.05525C16.7339 9.09882 12.5171 12.5595 9.55032 16.9996C6.58352 21.4397 5 26.6599 5 32C5 37.3401 6.58352 42.5603 9.55032 47.0004C12.5171 51.4405 16.7339 54.9012 21.6676 56.9447C26.6012 58.9883 32.03 59.523 37.2674 58.4812C42.5049 57.4394 47.3159 54.8679 51.0919 51.0919L32 32L51.0919 12.9081Z" stroke="white" stroke-width="8" mask="url(#path-1-inside-1_7_92)"/>
<rect x="50.1343" y="22.7313" width="18.5373" height="32.2388" transform="rotate(90 50.1343 22.7313)" fill="#212121"/>
<path d="M48.7656 26.9062C49.2135 26.9479 49.6094 26.9792 49.9531 27C50.2969 27.0208 50.5833 27.0417 50.8125 27.0625C51.0833 27.0833 51.3125 27.099 51.5 27.1094C51.6875 27.1198 51.9167 27.125 52.1875 27.125C52.4167 27.1354 52.7031 27.1406 53.0469 27.1406C53.3906 27.1406 53.7969 27.1406 54.2656 27.1406C53.9635 27.2865 53.7292 27.4219 53.5625 27.5469C53.4062 27.6719 53.2865 27.7812 53.2031 27.875C53.099 27.9896 53.0365 28.0938 53.0156 28.1875C53.0052 28.2708 53.026 28.4115 53.0781 28.6094C53.1302 28.8073 53.2031 29.0312 53.2969 29.2812C53.3906 29.5208 53.5052 29.776 53.6406 30.0469C53.776 30.3177 53.9167 30.5625 54.0625 30.7812C54.2188 30.9896 54.375 31.1615 54.5312 31.2969C54.6875 31.4323 54.8385 31.4948 54.9844 31.4844C55.1302 31.474 55.3073 31.4062 55.5156 31.2812C55.724 31.1458 55.9375 30.9792 56.1562 30.7812C56.3854 30.5833 56.6094 30.3698 56.8281 30.1406C57.0469 29.9115 57.2396 29.6875 57.4062 29.4688C57.5833 29.25 57.724 29.0521 57.8281 28.875C57.9427 28.6875 58 28.5521 58 28.4688C57.9896 28.3646 57.9479 28.2448 57.875 28.1094C57.8125 27.9948 57.7083 27.8594 57.5625 27.7031C57.4167 27.5365 57.2135 27.349 56.9531 27.1406C57.8073 27.1719 58.4323 27.1875 58.8281 27.1875H59.4062H60.0625C60.3021 27.1875 60.6198 27.1875 61.0156 27.1875C61.4115 27.1771 61.9062 27.1615 62.5 27.1406C62.0938 27.4115 61.7396 27.6562 61.4375 27.875C61.1458 28.0833 60.8958 28.2604 60.6875 28.4062C60.4479 28.5833 60.25 28.7396 60.0938 28.875C59.9167 29.0208 59.6719 29.25 59.3594 29.5625C59.0885 29.8333 58.7292 30.1979 58.2812 30.6562C57.8333 31.1042 57.2708 31.6875 56.5938 32.4062C56.5 33.1667 56.4375 33.7812 56.4062 34.25C56.3854 34.7188 56.375 35.0885 56.375 35.3594C56.375 35.6719 56.3958 35.9062 56.4375 36.0625C56.4896 36.1875 56.5781 36.3333 56.7031 36.5C56.8073 36.6458 56.9531 36.8177 57.1406 37.0156C57.3385 37.2135 57.599 37.4323 57.9219 37.6719C57.5781 37.5885 57.2552 37.526 56.9531 37.4844C56.6615 37.4427 56.401 37.4115 56.1719 37.3906C55.901 37.3594 55.6562 37.3438 55.4375 37.3438C55.2083 37.3438 54.9375 37.3542 54.625 37.375C54.3542 37.3958 54.0312 37.4219 53.6562 37.4531C53.2812 37.4844 52.8438 37.5312 52.3438 37.5938C52.6042 37.4167 52.8177 37.2396 52.9844 37.0625C53.151 36.8854 53.2812 36.724 53.375 36.5781C53.4896 36.4115 53.5729 36.2552 53.625 36.1094C53.6667 35.9427 53.6979 35.7031 53.7188 35.3906C53.7396 35.1198 53.7396 34.7604 53.7188 34.3125C53.7083 33.8646 53.6771 33.2969 53.625 32.6094C53 31.6094 52.4896 30.8229 52.0938 30.25C51.6979 29.6667 51.3906 29.224 51.1719 28.9219C50.9115 28.5781 50.724 28.349 50.6094 28.2344C50.5052 28.151 50.3646 28.0469 50.1875 27.9219C50.0417 27.8073 49.8542 27.6719 49.625 27.5156C49.3854 27.349 49.099 27.1458 48.7656 26.9062ZM58.9844 26.5938C59.3177 26.6458 59.6198 26.6927 59.8906 26.7344C60.1615 26.7656 60.3958 26.7917 60.5938 26.8125C60.8229 26.8438 61.026 26.8698 61.2031 26.8906C61.4219 26.9219 61.75 26.8854 62.1875 26.7812C62.625 26.6667 63.1042 26.5625 63.625 26.4688C64.1562 26.3646 64.6979 26.3073 65.25 26.2969C65.8021 26.276 66.3073 26.375 66.7656 26.5938C67.224 26.8125 67.599 27.0312 67.8906 27.25C68.1823 27.4688 68.4115 27.7031 68.5781 27.9531C68.7552 28.1927 68.8802 28.4479 68.9531 28.7188C69.026 28.9896 69.0677 29.2865 69.0781 29.6094C69.0677 30.0885 68.9531 30.5521 68.7344 31C68.6406 31.1875 68.5156 31.3854 68.3594 31.5938C68.2135 31.7917 68.0312 31.9844 67.8125 32.1719C67.5938 32.3594 67.3333 32.5365 67.0312 32.7031C66.7396 32.8698 66.3958 33.0156 66 33.1406C66.3854 33.2552 66.7031 33.3906 66.9531 33.5469C67.2135 33.7031 67.4219 33.849 67.5781 33.9844C67.7656 34.151 67.9062 34.3125 68 34.4688C68.1146 34.6875 68.1927 34.875 68.2344 35.0312C68.276 35.1875 68.3021 35.3385 68.3125 35.4844C68.3333 35.6198 68.3594 35.7604 68.3906 35.9062C68.4219 36.0521 68.4896 36.2188 68.5938 36.4062C68.6771 36.5521 68.776 36.7031 68.8906 36.8594C68.9948 36.9948 69.1146 37.1406 69.25 37.2969C69.3958 37.4531 69.5729 37.6042 69.7812 37.75C69.4896 37.7604 69.2188 37.7656 68.9688 37.7656C68.7292 37.7656 68.5208 37.7656 68.3438 37.7656C68.1354 37.7656 67.9375 37.7604 67.75 37.75C67.5625 37.7396 67.3281 37.7344 67.0469 37.7344C66.8073 37.7344 66.5 37.7344 66.125 37.7344C65.7604 37.7344 65.3177 37.7396 64.7969 37.75C65.026 37.5729 65.2135 37.3958 65.3594 37.2188C65.5052 37.0417 65.6198 36.8802 65.7031 36.7344C65.7969 36.5677 65.8646 36.4062 65.9062 36.25C65.9583 35.9688 65.9635 35.6771 65.9219 35.375C65.8906 35.1146 65.8073 34.8281 65.6719 34.5156C65.5365 34.1927 65.3177 33.8698 65.0156 33.5469C64.7135 33.599 64.4583 33.6406 64.25 33.6719C64.0521 33.6927 63.8802 33.7135 63.7344 33.7344C63.5677 33.7552 63.4323 33.7708 63.3281 33.7812C63.2344 33.7917 63.1302 33.8021 63.0156 33.8125C62.9219 33.8229 62.8177 33.8385 62.7031 33.8594C62.599 33.8698 62.5 33.8854 62.4062 33.9062C62.3854 34.3542 62.3854 34.7448 62.4062 35.0781C62.4271 35.401 62.4531 35.6719 62.4844 35.8906C62.526 36.151 62.5729 36.375 62.625 36.5625C62.6771 36.75 62.75 36.9323 62.8438 37.1094C62.9167 37.2552 63.0104 37.4115 63.125 37.5781C63.2396 37.7344 63.3698 37.8646 63.5156 37.9688C63.2448 37.9688 62.9844 37.9688 62.7344 37.9688C62.4948 37.9688 62.276 37.9635 62.0781 37.9531C61.849 37.9531 61.6302 37.9479 61.4219 37.9375C61.2135 37.9271 60.9792 37.9219 60.7188 37.9219C60.5 37.9219 60.2396 37.9219 59.9375 37.9219C59.6458 37.9219 59.3281 37.9271 58.9844 37.9375C59.2552 37.6562 59.4688 37.4167 59.625 37.2188C59.7812 37.0208 59.901 36.8542 59.9844 36.7188C60.0781 36.5729 60.1354 36.4479 60.1562 36.3438C60.1771 36.1771 60.1927 35.8802 60.2031 35.4531C60.224 35.0156 60.2396 34.5156 60.25 33.9531C60.2604 33.3906 60.2656 32.8021 60.2656 32.1875C60.2656 31.5729 60.2604 31 60.25 30.4688C60.2396 29.9271 60.2292 29.4635 60.2188 29.0781C60.2083 28.6927 60.1979 28.4479 60.1875 28.3438C60.1562 28.1562 60.0885 27.9688 59.9844 27.7812C59.901 27.6146 59.7812 27.4271 59.625 27.2188C59.4688 27.0104 59.2552 26.8021 58.9844 26.5938ZM64.8906 32.0938C64.9948 32.0312 65.0833 31.9688 65.1562 31.9062C65.2292 31.8438 65.2917 31.7448 65.3438 31.6094C65.3958 31.4635 65.4375 31.2604 65.4688 31C65.5104 30.7396 65.5573 30.3854 65.6094 29.9375C65.651 29.4896 65.6198 29.1198 65.5156 28.8281C65.4219 28.5365 65.2917 28.3073 65.125 28.1406C64.9688 27.9635 64.7917 27.8438 64.5938 27.7812C64.4062 27.7083 64.2396 27.6719 64.0938 27.6719C63.8021 27.6719 63.5156 27.7604 63.2344 27.9375C62.9531 28.1146 62.7396 28.3542 62.5938 28.6562C62.5417 28.7917 62.4948 29.0156 62.4531 29.3281C62.4219 29.599 62.401 29.974 62.3906 30.4531C62.3802 30.9323 62.3958 31.5625 62.4375 32.3438C62.8333 32.4062 63.1823 32.4323 63.4844 32.4219C63.7865 32.401 64.0417 32.3646 64.25 32.3125C64.5 32.2604 64.7135 32.1875 64.8906 32.0938ZM69.625 27.2344C69.9792 27.276 70.276 27.3073 70.5156 27.3281C70.7656 27.3385 70.9688 27.3542 71.125 27.375C71.3125 27.3958 71.4583 27.4062 71.5625 27.4062C71.6771 27.4167 71.849 27.4115 72.0781 27.3906C72.276 27.3698 72.5417 27.3438 72.875 27.3125C73.2188 27.2812 73.6562 27.2344 74.1875 27.1719C73.9479 27.3802 73.7552 27.5833 73.6094 27.7812C73.474 27.9688 73.3698 28.1354 73.2969 28.2812C73.2031 28.4583 73.1458 28.625 73.125 28.7812C73.0833 29.0312 73.0469 29.375 73.0156 29.8125C72.9948 30.2396 72.974 30.7083 72.9531 31.2188C72.9323 31.7292 72.9219 32.2552 72.9219 32.7969C72.9219 33.3385 72.9271 33.8542 72.9375 34.3438C72.9583 34.8229 72.9896 35.25 73.0312 35.625C73.0833 36 73.1458 36.2708 73.2188 36.4375C73.3229 36.625 73.4323 36.8125 73.5469 37C73.651 37.1562 73.776 37.3177 73.9219 37.4844C74.0677 37.651 74.2344 37.7865 74.4219 37.8906C73.8073 37.8594 73.3177 37.8438 72.9531 37.8438H72.3906C72.224 37.8438 72.0104 37.8542 71.75 37.875C71.5312 37.8958 71.2552 37.9167 70.9219 37.9375C70.5885 37.9583 70.1875 37.9896 69.7188 38.0312C69.9583 37.7708 70.1458 37.5208 70.2812 37.2812C70.4167 37.0417 70.526 36.8333 70.6094 36.6562C70.7031 36.4479 70.7656 36.25 70.7969 36.0625C70.8385 35.7917 70.8698 35.4583 70.8906 35.0625C70.9219 34.6562 70.9427 34.224 70.9531 33.7656C70.9635 33.2969 70.9635 32.8229 70.9531 32.3438C70.9531 31.8542 70.9427 31.3854 70.9219 30.9375C70.901 30.4896 70.8698 30.0833 70.8281 29.7188C70.7969 29.3542 70.7552 29.0625 70.7031 28.8438C70.6719 28.7083 70.6094 28.5573 70.5156 28.3906C70.4323 28.2448 70.3177 28.0781 70.1719 27.8906C70.0365 27.6927 69.8542 27.474 69.625 27.2344ZM74.8125 26.6719C75.1146 26.724 75.3802 26.7604 75.6094 26.7812C75.849 26.8021 76.0469 26.8177 76.2031 26.8281C76.3906 26.8385 76.5521 26.8438 76.6875 26.8438C76.8229 26.8438 77.0156 26.8333 77.2656 26.8125C77.474 26.7917 77.7448 26.7656 78.0781 26.7344C78.4219 26.7031 78.8438 26.651 79.3438 26.5781C79.1979 26.6198 79.0625 26.7396 78.9375 26.9375C78.8229 27.125 78.7188 27.3281 78.625 27.5469C78.5104 27.8073 78.4115 28.0938 78.3281 28.4062C78.2552 28.6875 78.1615 29.0729 78.0469 29.5625C77.9427 30.0521 77.8385 30.5833 77.7344 31.1562C77.6406 31.7292 77.5677 32.3125 77.5156 32.9062C77.4635 33.4896 77.4531 34.026 77.4844 34.5156C77.526 35.0052 77.625 35.4115 77.7812 35.7344C77.9375 36.0469 78.1771 36.2135 78.5 36.2344C78.9896 36.276 79.3958 36.2812 79.7188 36.25C80.0521 36.2083 80.3229 36.151 80.5312 36.0781C80.7396 36.0052 80.901 35.9219 81.0156 35.8281C81.1302 35.724 81.2188 35.625 81.2812 35.5312C81.4479 35.2917 81.6198 34.9844 81.7969 34.6094C81.974 34.2344 82.1302 33.875 82.2656 33.5312C82.4115 33.1875 82.5312 32.8958 82.625 32.6562C82.7188 32.4167 82.7656 32.3021 82.7656 32.3125C82.7656 32.3333 82.7604 32.4531 82.75 32.6719C82.75 32.8802 82.7448 33.1354 82.7344 33.4375C82.7344 33.7292 82.7292 34.0365 82.7188 34.3594C82.7188 34.6823 82.7135 34.9583 82.7031 35.1875C82.6927 35.375 82.6823 35.5833 82.6719 35.8125C82.6615 36.0104 82.651 36.2448 82.6406 36.5156C82.6406 36.7865 82.6302 37.0833 82.6094 37.4062C82.1719 37.375 81.7552 37.3542 81.3594 37.3438C80.9635 37.3333 80.6146 37.3281 80.3125 37.3281C79.9583 37.3281 79.6302 37.3333 79.3281 37.3438C79.0052 37.3542 78.6302 37.3698 78.2031 37.3906C77.8385 37.4115 77.3854 37.4375 76.8438 37.4688C76.3021 37.4896 75.6771 37.5208 74.9688 37.5625C75.0521 37.4167 75.1198 37.2812 75.1719 37.1562C75.2344 37.0312 75.2812 36.9271 75.3125 36.8438C75.3542 36.7396 75.3802 36.651 75.3906 36.5781C75.4531 36.2448 75.5052 35.8229 75.5469 35.3125C75.5885 34.7917 75.6198 34.2396 75.6406 33.6562C75.6719 33.0729 75.6875 32.4792 75.6875 31.875C75.6979 31.2604 75.6979 30.6927 75.6875 30.1719C75.6771 29.651 75.6562 29.1979 75.625 28.8125C75.6042 28.4271 75.5729 28.1615 75.5312 28.0156C75.4792 27.849 75.4167 27.6823 75.3438 27.5156C75.2812 27.3698 75.2031 27.224 75.1094 27.0781C75.026 26.9219 74.9271 26.7865 74.8125 26.6719Z" fill="white"/>
<path d="M109.531 74.4219C110.052 74.4531 110.49 74.4792 110.844 74.5C111.208 74.5104 111.51 74.5208 111.75 74.5312C112.021 74.5417 112.25 74.5417 112.438 74.5312C112.625 74.5208 112.88 74.4948 113.203 74.4531C113.474 74.4219 113.833 74.375 114.281 74.3125C114.74 74.2396 115.307 74.1458 115.984 74.0312C115.745 74.2708 115.557 74.4896 115.422 74.6875C115.297 74.875 115.198 75.0365 115.125 75.1719C115.042 75.3385 114.984 75.4792 114.953 75.5938C114.932 75.6979 114.953 75.9583 115.016 76.375C115.078 76.7917 115.167 77.2865 115.281 77.8594C115.396 78.4219 115.521 79.026 115.656 79.6719C115.792 80.3073 115.927 80.9062 116.062 81.4688C116.198 82.0208 116.318 82.4948 116.422 82.8906C116.536 83.276 116.62 83.5052 116.672 83.5781C116.828 83.7969 116.927 83.9427 116.969 84.0156C117.01 84.0781 117.083 84.1354 117.188 84.1875C117.229 84.2083 117.297 84.2396 117.391 84.2812C117.474 84.3229 117.583 84.375 117.719 84.4375C117.865 84.5 118.047 84.5729 118.266 84.6562C117.859 84.6771 117.51 84.6927 117.219 84.7031C116.927 84.7031 116.688 84.7083 116.5 84.7188C116.281 84.7292 116.094 84.7396 115.938 84.75C115.781 84.75 115.594 84.7604 115.375 84.7812C115.188 84.8021 114.943 84.8229 114.641 84.8438C114.349 84.8646 114.005 84.8854 113.609 84.9062C113.818 84.7604 113.984 84.6302 114.109 84.5156C114.245 84.3906 114.349 84.2865 114.422 84.2031C114.505 84.099 114.562 84.0052 114.594 83.9219C114.615 83.8281 114.63 83.6875 114.641 83.5C114.651 83.3333 114.651 83.1146 114.641 82.8438C114.63 82.5625 114.604 82.1979 114.562 81.75L110.453 82.1719C110.349 82.349 110.271 82.5052 110.219 82.6406C110.167 82.7656 110.13 82.875 110.109 82.9688C110.078 83.0833 110.068 83.1771 110.078 83.25C110.099 83.3333 110.135 83.4323 110.188 83.5469C110.24 83.651 110.312 83.776 110.406 83.9219C110.51 84.0573 110.661 84.2188 110.859 84.4062C110.599 84.3958 110.333 84.3906 110.062 84.3906C109.792 84.3906 109.542 84.3958 109.312 84.4062C109.042 84.4167 108.776 84.4271 108.516 84.4375C108.255 84.4479 107.958 84.4635 107.625 84.4844C107.344 84.5052 107.016 84.5312 106.641 84.5625C106.255 84.5833 105.844 84.6146 105.406 84.6562C105.677 84.5312 105.906 84.4062 106.094 84.2812C106.281 84.1458 106.438 84.0208 106.562 83.9062C106.708 83.7812 106.833 83.6615 106.938 83.5469C107.01 83.4427 107.156 83.2031 107.375 82.8281C107.594 82.4427 107.839 81.9896 108.109 81.4688C108.391 80.9479 108.682 80.3906 108.984 79.7969C109.297 79.2031 109.578 78.6458 109.828 78.125C110.078 77.5938 110.281 77.1354 110.438 76.75C110.594 76.3646 110.672 76.1146 110.672 76C110.651 75.8646 110.599 75.7135 110.516 75.5469C110.443 75.401 110.328 75.2344 110.172 75.0469C110.026 74.8594 109.812 74.651 109.531 74.4219ZM114.375 80.5938C114.312 80.2292 114.255 79.9167 114.203 79.6562C114.151 79.3854 114.109 79.1615 114.078 78.9844C114.036 78.776 114.005 78.5938 113.984 78.4375C113.953 78.2917 113.917 78.1042 113.875 77.875C113.833 77.6771 113.781 77.4323 113.719 77.1406C113.667 76.8385 113.599 76.4792 113.516 76.0625C112.922 77.25 112.458 78.1719 112.125 78.8281C111.802 79.474 111.568 79.9479 111.422 80.25C111.245 80.6042 111.146 80.8125 111.125 80.875L114.375 80.5938ZM116.891 73.5938C117.224 73.6458 117.526 73.6927 117.797 73.7344C118.068 73.7656 118.302 73.7917 118.5 73.8125C118.729 73.8438 118.932 73.8698 119.109 73.8906C119.328 73.9219 119.656 73.8854 120.094 73.7812C120.531 73.6667 121.01 73.5625 121.531 73.4688C122.062 73.3646 122.604 73.3073 123.156 73.2969C123.708 73.276 124.214 73.375 124.672 73.5938C125.13 73.8125 125.505 74.0312 125.797 74.25C126.089 74.4688 126.318 74.7031 126.484 74.9531C126.661 75.1927 126.786 75.4479 126.859 75.7188C126.932 75.9896 126.974 76.2865 126.984 76.6094C126.974 77.0885 126.859 77.5521 126.641 78C126.547 78.1875 126.422 78.3854 126.266 78.5938C126.12 78.7917 125.938 78.9844 125.719 79.1719C125.5 79.3594 125.24 79.5365 124.938 79.7031C124.646 79.8698 124.302 80.0156 123.906 80.1406C124.292 80.2552 124.609 80.3906 124.859 80.5469C125.12 80.7031 125.328 80.849 125.484 80.9844C125.672 81.151 125.812 81.3125 125.906 81.4688C126.021 81.6875 126.099 81.875 126.141 82.0312C126.182 82.1875 126.208 82.3385 126.219 82.4844C126.24 82.6198 126.266 82.7604 126.297 82.9062C126.328 83.0521 126.396 83.2188 126.5 83.4062C126.583 83.5521 126.682 83.7031 126.797 83.8594C126.901 83.9948 127.021 84.1406 127.156 84.2969C127.302 84.4531 127.479 84.6042 127.688 84.75C127.396 84.7604 127.125 84.7656 126.875 84.7656C126.635 84.7656 126.427 84.7656 126.25 84.7656C126.042 84.7656 125.844 84.7604 125.656 84.75C125.469 84.7396 125.234 84.7344 124.953 84.7344C124.714 84.7344 124.406 84.7344 124.031 84.7344C123.667 84.7344 123.224 84.7396 122.703 84.75C122.932 84.5729 123.12 84.3958 123.266 84.2188C123.411 84.0417 123.526 83.8802 123.609 83.7344C123.703 83.5677 123.771 83.4062 123.812 83.25C123.865 82.9688 123.87 82.6771 123.828 82.375C123.797 82.1146 123.714 81.8281 123.578 81.5156C123.443 81.1927 123.224 80.8698 122.922 80.5469C122.62 80.599 122.365 80.6406 122.156 80.6719C121.958 80.6927 121.786 80.7135 121.641 80.7344C121.474 80.7552 121.339 80.7708 121.234 80.7812C121.141 80.7917 121.036 80.8021 120.922 80.8125C120.828 80.8229 120.724 80.8385 120.609 80.8594C120.505 80.8698 120.406 80.8854 120.312 80.9062C120.292 81.3542 120.292 81.7448 120.312 82.0781C120.333 82.401 120.359 82.6719 120.391 82.8906C120.432 83.151 120.479 83.375 120.531 83.5625C120.583 83.75 120.656 83.9323 120.75 84.1094C120.823 84.2552 120.917 84.4115 121.031 84.5781C121.146 84.7344 121.276 84.8646 121.422 84.9688C121.151 84.9688 120.891 84.9688 120.641 84.9688C120.401 84.9688 120.182 84.9635 119.984 84.9531C119.755 84.9531 119.536 84.9479 119.328 84.9375C119.12 84.9271 118.885 84.9219 118.625 84.9219C118.406 84.9219 118.146 84.9219 117.844 84.9219C117.552 84.9219 117.234 84.9271 116.891 84.9375C117.161 84.6562 117.375 84.4167 117.531 84.2188C117.688 84.0208 117.807 83.8542 117.891 83.7188C117.984 83.5729 118.042 83.4479 118.062 83.3438C118.083 83.1771 118.099 82.8802 118.109 82.4531C118.13 82.0156 118.146 81.5156 118.156 80.9531C118.167 80.3906 118.172 79.8021 118.172 79.1875C118.172 78.5729 118.167 78 118.156 77.4688C118.146 76.9271 118.135 76.4635 118.125 76.0781C118.115 75.6927 118.104 75.4479 118.094 75.3438C118.062 75.1562 117.995 74.9688 117.891 74.7812C117.807 74.6146 117.688 74.4271 117.531 74.2188C117.375 74.0104 117.161 73.8021 116.891 73.5938ZM122.797 79.0938C122.901 79.0312 122.99 78.9688 123.062 78.9062C123.135 78.8438 123.198 78.7448 123.25 78.6094C123.302 78.4635 123.344 78.2604 123.375 78C123.417 77.7396 123.464 77.3854 123.516 76.9375C123.557 76.4896 123.526 76.1198 123.422 75.8281C123.328 75.5365 123.198 75.3073 123.031 75.1406C122.875 74.9635 122.698 74.8438 122.5 74.7812C122.312 74.7083 122.146 74.6719 122 74.6719C121.708 74.6719 121.422 74.7604 121.141 74.9375C120.859 75.1146 120.646 75.3542 120.5 75.6562C120.448 75.7917 120.401 76.0156 120.359 76.3281C120.328 76.599 120.307 76.974 120.297 77.4531C120.286 77.9323 120.302 78.5625 120.344 79.3438C120.74 79.4062 121.089 79.4323 121.391 79.4219C121.693 79.401 121.948 79.3646 122.156 79.3125C122.406 79.2604 122.62 79.1875 122.797 79.0938ZM129.594 74.4219C130.115 74.4531 130.552 74.4792 130.906 74.5C131.271 74.5104 131.573 74.5208 131.812 74.5312C132.083 74.5417 132.312 74.5417 132.5 74.5312C132.688 74.5208 132.943 74.4948 133.266 74.4531C133.536 74.4219 133.896 74.375 134.344 74.3125C134.802 74.2396 135.37 74.1458 136.047 74.0312C135.807 74.2708 135.62 74.4896 135.484 74.6875C135.359 74.875 135.26 75.0365 135.188 75.1719C135.104 75.3385 135.047 75.4792 135.016 75.5938C134.995 75.6979 135.016 75.9583 135.078 76.375C135.141 76.7917 135.229 77.2865 135.344 77.8594C135.458 78.4219 135.583 79.026 135.719 79.6719C135.854 80.3073 135.99 80.9062 136.125 81.4688C136.26 82.0208 136.38 82.4948 136.484 82.8906C136.599 83.276 136.682 83.5052 136.734 83.5781C136.891 83.7969 136.99 83.9427 137.031 84.0156C137.073 84.0781 137.146 84.1354 137.25 84.1875C137.292 84.2083 137.359 84.2396 137.453 84.2812C137.536 84.3229 137.646 84.375 137.781 84.4375C137.927 84.5 138.109 84.5729 138.328 84.6562C137.922 84.6771 137.573 84.6927 137.281 84.7031C136.99 84.7031 136.75 84.7083 136.562 84.7188C136.344 84.7292 136.156 84.7396 136 84.75C135.844 84.75 135.656 84.7604 135.438 84.7812C135.25 84.8021 135.005 84.8229 134.703 84.8438C134.411 84.8646 134.068 84.8854 133.672 84.9062C133.88 84.7604 134.047 84.6302 134.172 84.5156C134.307 84.3906 134.411 84.2865 134.484 84.2031C134.568 84.099 134.625 84.0052 134.656 83.9219C134.677 83.8281 134.693 83.6875 134.703 83.5C134.714 83.3333 134.714 83.1146 134.703 82.8438C134.693 82.5625 134.667 82.1979 134.625 81.75L130.516 82.1719C130.411 82.349 130.333 82.5052 130.281 82.6406C130.229 82.7656 130.193 82.875 130.172 82.9688C130.141 83.0833 130.13 83.1771 130.141 83.25C130.161 83.3333 130.198 83.4323 130.25 83.5469C130.302 83.651 130.375 83.776 130.469 83.9219C130.573 84.0573 130.724 84.2188 130.922 84.4062C130.661 84.3958 130.396 84.3906 130.125 84.3906C129.854 84.3906 129.604 84.3958 129.375 84.4062C129.104 84.4167 128.839 84.4271 128.578 84.4375C128.318 84.4479 128.021 84.4635 127.688 84.4844C127.406 84.5052 127.078 84.5312 126.703 84.5625C126.318 84.5833 125.906 84.6146 125.469 84.6562C125.74 84.5312 125.969 84.4062 126.156 84.2812C126.344 84.1458 126.5 84.0208 126.625 83.9062C126.771 83.7812 126.896 83.6615 127 83.5469C127.073 83.4427 127.219 83.2031 127.438 82.8281C127.656 82.4427 127.901 81.9896 128.172 81.4688C128.453 80.9479 128.745 80.3906 129.047 79.7969C129.359 79.2031 129.641 78.6458 129.891 78.125C130.141 77.5938 130.344 77.1354 130.5 76.75C130.656 76.3646 130.734 76.1146 130.734 76C130.714 75.8646 130.661 75.7135 130.578 75.5469C130.505 75.401 130.391 75.2344 130.234 75.0469C130.089 74.8594 129.875 74.651 129.594 74.4219ZM134.438 80.5938C134.375 80.2292 134.318 79.9167 134.266 79.6562C134.214 79.3854 134.172 79.1615 134.141 78.9844C134.099 78.776 134.068 78.5938 134.047 78.4375C134.016 78.2917 133.979 78.1042 133.938 77.875C133.896 77.6771 133.844 77.4323 133.781 77.1406C133.729 76.8385 133.661 76.4792 133.578 76.0625C132.984 77.25 132.521 78.1719 132.188 78.8281C131.865 79.474 131.63 79.9479 131.484 80.25C131.307 80.6042 131.208 80.8125 131.188 80.875L134.438 80.5938ZM137.438 73.9219C137.906 74.0052 138.292 74.0625 138.594 74.0938C138.896 74.125 139.141 74.151 139.328 74.1719C139.547 74.1927 139.719 74.1979 139.844 74.1875H140.312C140.479 74.1875 140.688 74.1875 140.938 74.1875C141.198 74.1771 141.521 74.1719 141.906 74.1719C142.125 74.6823 142.323 75.151 142.5 75.5781C142.688 76.0052 142.844 76.3698 142.969 76.6719C143.115 77.0365 143.25 77.3646 143.375 77.6562C143.521 78.0208 143.677 78.4219 143.844 78.8594C144.01 79.2969 144.161 79.7083 144.297 80.0938C144.443 80.4792 144.562 80.7969 144.656 81.0469C144.75 81.2969 144.797 81.4115 144.797 81.3906C144.797 81.3802 144.802 81.276 144.812 81.0781C144.823 80.8698 144.833 80.6146 144.844 80.3125C144.854 80 144.865 79.6615 144.875 79.2969C144.896 78.9219 144.906 78.5625 144.906 78.2188C144.917 77.8646 144.922 77.5417 144.922 77.25C144.922 76.9583 144.911 76.7396 144.891 76.5938C144.859 76.4167 144.797 76.2135 144.703 75.9844C144.62 75.7865 144.505 75.5521 144.359 75.2812C144.214 75 144.01 74.6823 143.75 74.3281C144.177 74.3385 144.526 74.3438 144.797 74.3438C145.068 74.3438 145.286 74.3438 145.453 74.3438C145.641 74.3438 145.786 74.3385 145.891 74.3281C146.026 74.3281 146.193 74.3177 146.391 74.2969C146.568 74.276 146.786 74.2604 147.047 74.25C147.318 74.2292 147.651 74.2031 148.047 74.1719C147.818 74.3802 147.635 74.5781 147.5 74.7656C147.365 74.9531 147.255 75.1198 147.172 75.2656C147.078 75.4323 147.016 75.5885 146.984 75.7344C146.943 75.9219 146.906 76.2292 146.875 76.6562C146.854 77.0729 146.828 77.5417 146.797 78.0625C146.776 78.5833 146.755 79.125 146.734 79.6875C146.714 80.25 146.693 80.7656 146.672 81.2344C146.672 81.5885 146.661 81.9688 146.641 82.375C146.62 82.7188 146.599 83.1094 146.578 83.5469C146.557 83.974 146.531 84.4062 146.5 84.8438L145.109 84.875C144.703 84.1562 144.359 83.5417 144.078 83.0312C143.807 82.5104 143.583 82.0833 143.406 81.75C143.208 81.3646 143.042 81.0417 142.906 80.7812C142.792 80.5312 142.641 80.2448 142.453 79.9219C142.297 79.651 142.099 79.3177 141.859 78.9219C141.63 78.526 141.354 78.0729 141.031 77.5625C141 78.2812 140.984 78.8958 140.984 79.4062C140.995 79.9062 141.01 80.3229 141.031 80.6562C141.062 81.0417 141.099 81.3646 141.141 81.625C141.193 81.875 141.266 82.1562 141.359 82.4688C141.443 82.7396 141.542 83.0573 141.656 83.4219C141.781 83.7865 141.932 84.1979 142.109 84.6562C141.495 84.625 141.036 84.6094 140.734 84.6094H140.266C140.12 84.6094 139.922 84.625 139.672 84.6562C139.464 84.6771 139.177 84.7083 138.812 84.75C138.458 84.7917 138.016 84.849 137.484 84.9219C137.734 84.6198 137.932 84.3438 138.078 84.0938C138.234 83.8333 138.354 83.6146 138.438 83.4375C138.542 83.2292 138.615 83.0469 138.656 82.8906C138.688 82.724 138.708 82.4375 138.719 82.0312C138.729 81.6146 138.729 81.1458 138.719 80.625C138.719 80.0938 138.708 79.5365 138.688 78.9531C138.677 78.3698 138.661 77.8281 138.641 77.3281C138.62 76.8281 138.594 76.401 138.562 76.0469C138.542 75.6927 138.526 75.474 138.516 75.3906C138.484 75.2552 138.422 75.1094 138.328 74.9531C138.245 74.8177 138.135 74.6667 138 74.5C137.865 74.3229 137.677 74.1302 137.438 73.9219ZM147.578 73.8281C147.911 73.9115 148.229 73.974 148.531 74.0156C148.833 74.0573 149.099 74.0885 149.328 74.1094C149.599 74.1406 149.849 74.151 150.078 74.1406C150.37 74.1406 150.734 74.1146 151.172 74.0625C151.62 74.0104 152.078 73.9635 152.547 73.9219C153.016 73.8698 153.464 73.8385 153.891 73.8281C154.328 73.8073 154.682 73.8333 154.953 73.9062C155.224 73.9688 155.5 74.0677 155.781 74.2031C156.073 74.3281 156.339 74.4896 156.578 74.6875C156.818 74.875 157.016 75.099 157.172 75.3594C157.328 75.6094 157.417 75.8958 157.438 76.2188C157.427 76.625 157.333 77.0052 157.156 77.3594C157.01 77.6615 156.766 77.974 156.422 78.2969C156.078 78.6094 155.583 78.849 154.938 79.0156C155.26 79.0573 155.536 79.1302 155.766 79.2344C156.005 79.3281 156.208 79.4427 156.375 79.5781C156.552 79.7031 156.693 79.8438 156.797 80C156.911 80.1562 157 80.3125 157.062 80.4688C157.219 80.8333 157.292 81.2396 157.281 81.6875C157.219 82.2708 157.099 82.7344 156.922 83.0781C156.755 83.4219 156.562 83.6875 156.344 83.875C156.125 84.0625 155.901 84.1927 155.672 84.2656C155.443 84.3385 155.234 84.3958 155.047 84.4375C154.859 84.4792 154.63 84.5 154.359 84.5C154.089 84.5 153.797 84.4948 153.484 84.4844C153.182 84.4635 152.87 84.4479 152.547 84.4375C152.224 84.4167 151.917 84.4167 151.625 84.4375C151.385 84.4583 151.094 84.4792 150.75 84.5C150.458 84.5208 150.094 84.5469 149.656 84.5781C149.219 84.599 148.708 84.625 148.125 84.6562C148.24 84.5729 148.333 84.4792 148.406 84.375C148.49 84.2604 148.557 84.1615 148.609 84.0781C148.661 83.974 148.708 83.875 148.75 83.7812C148.781 83.6979 148.807 83.4688 148.828 83.0938C148.849 82.7188 148.865 82.2708 148.875 81.75C148.885 81.2188 148.891 80.651 148.891 80.0469C148.901 79.4323 148.896 78.8438 148.875 78.2812C148.865 77.7083 148.844 77.2031 148.812 76.7656C148.792 76.3177 148.76 75.9948 148.719 75.7969C148.656 75.5781 148.573 75.3542 148.469 75.125C148.385 74.9271 148.266 74.7135 148.109 74.4844C147.964 74.2552 147.786 74.0365 147.578 73.8281ZM150.875 75.4219C150.875 75.4635 150.88 75.6042 150.891 75.8438C150.901 76.0521 150.911 76.375 150.922 76.8125C150.943 77.2396 150.969 77.849 151 78.6406C151.26 78.7552 151.516 78.8177 151.766 78.8281C152.016 78.8281 152.24 78.8177 152.438 78.7969C152.667 78.7656 152.885 78.7135 153.094 78.6406C153.375 78.526 153.594 78.3385 153.75 78.0781C153.917 77.8177 154.026 77.5469 154.078 77.2656C154.141 76.974 154.156 76.7031 154.125 76.4531C154.094 76.1927 154.026 76.0052 153.922 75.8906C153.724 75.7135 153.479 75.5677 153.188 75.4531C152.938 75.3594 152.62 75.2969 152.234 75.2656C151.859 75.224 151.406 75.276 150.875 75.4219ZM150.797 82.8281C151.182 83.026 151.521 83.1562 151.812 83.2188C152.104 83.2812 152.349 83.3125 152.547 83.3125C152.776 83.3125 152.974 83.2812 153.141 83.2188C153.339 83.125 153.531 83 153.719 82.8438C153.917 82.6771 154.062 82.4844 154.156 82.2656C154.26 82.0365 154.302 81.7865 154.281 81.5156C154.26 81.2344 154.141 80.9271 153.922 80.5938C153.724 80.3542 153.484 80.1667 153.203 80.0312C152.953 79.9167 152.635 79.8438 152.25 79.8125C151.875 79.7812 151.411 79.8698 150.859 80.0781L150.797 82.8281ZM157.281 74.3281C158.01 74.349 158.615 74.3646 159.094 74.375C159.583 74.375 159.979 74.375 160.281 74.375H161.109H165.766C165.786 74.5833 165.802 74.7865 165.812 74.9844C165.833 75.1719 165.844 75.3385 165.844 75.4844C165.844 75.6615 165.839 75.8229 165.828 75.9688C165.818 76.1146 165.802 76.2708 165.781 76.4375C165.76 76.5833 165.74 76.7396 165.719 76.9062C165.698 77.0729 165.661 77.2448 165.609 77.4219C165.464 76.8594 165.266 76.4323 165.016 76.1406C164.776 75.849 164.531 75.6354 164.281 75.5C163.99 75.3438 163.682 75.2604 163.359 75.25C162.932 75.2708 162.599 75.3073 162.359 75.3594C162.12 75.4115 161.932 75.4844 161.797 75.5781C161.661 75.6719 161.557 75.7812 161.484 75.9062C161.422 76.0208 161.354 76.151 161.281 76.2969C161.219 76.4219 161.161 76.6146 161.109 76.875C161.057 77.0938 161.005 77.3906 160.953 77.7656C160.911 78.1406 160.865 78.625 160.812 79.2188C161.094 79.1354 161.318 79.0573 161.484 78.9844C161.661 78.9115 161.802 78.849 161.906 78.7969C162.021 78.7344 162.104 78.6771 162.156 78.625C162.198 78.5625 162.26 78.4479 162.344 78.2812C162.406 78.1354 162.49 77.9375 162.594 77.6875C162.708 77.4375 162.844 77.0938 163 76.6562C163.021 77.1354 163.031 77.5365 163.031 77.8594C163.031 78.1719 163.036 78.4271 163.047 78.625C163.047 78.8542 163.052 79.0365 163.062 79.1719V79.7656C163.062 79.9844 163.062 80.2812 163.062 80.6562C163.073 81.0208 163.089 81.4844 163.109 82.0469C162.984 81.6615 162.87 81.3594 162.766 81.1406C162.672 80.9115 162.589 80.7396 162.516 80.625C162.432 80.4896 162.359 80.3958 162.297 80.3438C162.224 80.3229 162.125 80.3021 162 80.2812C161.885 80.2708 161.74 80.2656 161.562 80.2656C161.396 80.2656 161.182 80.2917 160.922 80.3438C160.891 80.9167 160.885 81.3802 160.906 81.7344C160.938 82.0781 160.979 82.3438 161.031 82.5312C161.083 82.75 161.146 82.9062 161.219 83C161.312 83.0938 161.5 83.1719 161.781 83.2344C162.062 83.2865 162.38 83.3073 162.734 83.2969C163.099 83.276 163.469 83.2135 163.844 83.1094C164.219 83.0052 164.552 82.8333 164.844 82.5938C165.062 82.3958 165.297 82.1458 165.547 81.8438C165.755 81.5833 165.984 81.2552 166.234 80.8594C166.495 80.4635 166.75 79.9844 167 79.4219C166.958 79.8906 166.927 80.2812 166.906 80.5938C166.896 80.8958 166.88 81.1406 166.859 81.3281C166.839 81.5469 166.823 81.7135 166.812 81.8281C166.812 81.9531 166.797 82.1302 166.766 82.3594C166.745 82.5573 166.708 82.8281 166.656 83.1719C166.615 83.5052 166.557 83.9323 166.484 84.4531C165.995 84.4635 165.531 84.474 165.094 84.4844C164.656 84.4844 164.271 84.4896 163.938 84.5C163.542 84.5104 163.177 84.5208 162.844 84.5312C162.5 84.5312 162.12 84.5469 161.703 84.5781C161.339 84.599 160.906 84.6302 160.406 84.6719C159.917 84.7135 159.375 84.7708 158.781 84.8438C158.833 84.1354 158.87 83.4688 158.891 82.8438C158.922 82.2083 158.943 81.651 158.953 81.1719C158.964 80.6094 158.964 80.0885 158.953 79.6094C159.005 78.4115 158.984 77.4427 158.891 76.7031C158.797 75.9635 158.688 75.4896 158.562 75.2812C158.5 75.2083 158.411 75.1198 158.297 75.0156C158.203 74.9323 158.073 74.8333 157.906 74.7188C157.74 74.6042 157.531 74.474 157.281 74.3281ZM166.922 73.5938C167.255 73.6458 167.557 73.6927 167.828 73.7344C168.099 73.7656 168.333 73.7917 168.531 73.8125C168.76 73.8438 168.964 73.8698 169.141 73.8906C169.359 73.9219 169.688 73.8854 170.125 73.7812C170.562 73.6667 171.042 73.5625 171.562 73.4688C172.094 73.3646 172.635 73.3073 173.188 73.2969C173.74 73.276 174.245 73.375 174.703 73.5938C175.161 73.8125 175.536 74.0312 175.828 74.25C176.12 74.4688 176.349 74.7031 176.516 74.9531C176.693 75.1927 176.818 75.4479 176.891 75.7188C176.964 75.9896 177.005 76.2865 177.016 76.6094C177.005 77.0885 176.891 77.5521 176.672 78C176.578 78.1875 176.453 78.3854 176.297 78.5938C176.151 78.7917 175.969 78.9844 175.75 79.1719C175.531 79.3594 175.271 79.5365 174.969 79.7031C174.677 79.8698 174.333 80.0156 173.938 80.1406C174.323 80.2552 174.641 80.3906 174.891 80.5469C175.151 80.7031 175.359 80.849 175.516 80.9844C175.703 81.151 175.844 81.3125 175.938 81.4688C176.052 81.6875 176.13 81.875 176.172 82.0312C176.214 82.1875 176.24 82.3385 176.25 82.4844C176.271 82.6198 176.297 82.7604 176.328 82.9062C176.359 83.0521 176.427 83.2188 176.531 83.4062C176.615 83.5521 176.714 83.7031 176.828 83.8594C176.932 83.9948 177.052 84.1406 177.188 84.2969C177.333 84.4531 177.51 84.6042 177.719 84.75C177.427 84.7604 177.156 84.7656 176.906 84.7656C176.667 84.7656 176.458 84.7656 176.281 84.7656C176.073 84.7656 175.875 84.7604 175.688 84.75C175.5 84.7396 175.266 84.7344 174.984 84.7344C174.745 84.7344 174.438 84.7344 174.062 84.7344C173.698 84.7344 173.255 84.7396 172.734 84.75C172.964 84.5729 173.151 84.3958 173.297 84.2188C173.443 84.0417 173.557 83.8802 173.641 83.7344C173.734 83.5677 173.802 83.4062 173.844 83.25C173.896 82.9688 173.901 82.6771 173.859 82.375C173.828 82.1146 173.745 81.8281 173.609 81.5156C173.474 81.1927 173.255 80.8698 172.953 80.5469C172.651 80.599 172.396 80.6406 172.188 80.6719C171.99 80.6927 171.818 80.7135 171.672 80.7344C171.505 80.7552 171.37 80.7708 171.266 80.7812C171.172 80.7917 171.068 80.8021 170.953 80.8125C170.859 80.8229 170.755 80.8385 170.641 80.8594C170.536 80.8698 170.438 80.8854 170.344 80.9062C170.323 81.3542 170.323 81.7448 170.344 82.0781C170.365 82.401 170.391 82.6719 170.422 82.8906C170.464 83.151 170.51 83.375 170.562 83.5625C170.615 83.75 170.688 83.9323 170.781 84.1094C170.854 84.2552 170.948 84.4115 171.062 84.5781C171.177 84.7344 171.307 84.8646 171.453 84.9688C171.182 84.9688 170.922 84.9688 170.672 84.9688C170.432 84.9688 170.214 84.9635 170.016 84.9531C169.786 84.9531 169.568 84.9479 169.359 84.9375C169.151 84.9271 168.917 84.9219 168.656 84.9219C168.438 84.9219 168.177 84.9219 167.875 84.9219C167.583 84.9219 167.266 84.9271 166.922 84.9375C167.193 84.6562 167.406 84.4167 167.562 84.2188C167.719 84.0208 167.839 83.8542 167.922 83.7188C168.016 83.5729 168.073 83.4479 168.094 83.3438C168.115 83.1771 168.13 82.8802 168.141 82.4531C168.161 82.0156 168.177 81.5156 168.188 80.9531C168.198 80.3906 168.203 79.8021 168.203 79.1875C168.203 78.5729 168.198 78 168.188 77.4688C168.177 76.9271 168.167 76.4635 168.156 76.0781C168.146 75.6927 168.135 75.4479 168.125 75.3438C168.094 75.1562 168.026 74.9688 167.922 74.7812C167.839 74.6146 167.719 74.4271 167.562 74.2188C167.406 74.0104 167.193 73.8021 166.922 73.5938ZM172.828 79.0938C172.932 79.0312 173.021 78.9688 173.094 78.9062C173.167 78.8438 173.229 78.7448 173.281 78.6094C173.333 78.4635 173.375 78.2604 173.406 78C173.448 77.7396 173.495 77.3854 173.547 76.9375C173.589 76.4896 173.557 76.1198 173.453 75.8281C173.359 75.5365 173.229 75.3073 173.062 75.1406C172.906 74.9635 172.729 74.8438 172.531 74.7812C172.344 74.7083 172.177 74.6719 172.031 74.6719C171.74 74.6719 171.453 74.7604 171.172 74.9375C170.891 75.1146 170.677 75.3542 170.531 75.6562C170.479 75.7917 170.432 76.0156 170.391 76.3281C170.359 76.599 170.339 76.974 170.328 77.4531C170.318 77.9323 170.333 78.5625 170.375 79.3438C170.771 79.4062 171.12 79.4323 171.422 79.4219C171.724 79.401 171.979 79.3646 172.188 79.3125C172.438 79.2604 172.651 79.1875 172.828 79.0938Z" fill="white"/>
<mask id="path-5-inside-2_7_92" fill="white">
<path d="M53.0469 58.0469C49.2046 61.8891 46.588 66.7845 45.5279 72.1139C44.4678 77.4432 45.0119 82.9673 47.0913 87.9874C49.1707 93.0076 52.6921 97.2984 57.2101 100.317C61.7282 103.336 67.0399 104.947 72.4737 104.947C77.9075 104.947 83.2192 103.336 87.7373 100.317C92.2553 97.2984 95.7767 93.0076 97.8561 87.9874C99.9355 82.9673 100.48 77.4432 99.4195 72.1138C98.3594 66.7845 95.7428 61.8891 91.9005 58.0469L72.4737 77.4737L53.0469 58.0469Z"/>
</mask>
<path d="M53.0469 58.0469C49.2046 61.8891 46.588 66.7845 45.5279 72.1139C44.4678 77.4432 45.0119 82.9673 47.0913 87.9874C49.1707 93.0076 52.6921 97.2984 57.2101 100.317C61.7282 103.336 67.0399 104.947 72.4737 104.947C77.9075 104.947 83.2192 103.336 87.7373 100.317C92.2553 97.2984 95.7767 93.0076 97.8561 87.9874C99.9355 82.9673 100.48 77.4432 99.4195 72.1138C98.3594 66.7845 95.7428 61.8891 91.9005 58.0469L72.4737 77.4737L53.0469 58.0469Z" stroke="white" stroke-width="8" mask="url(#path-5-inside-2_7_92)"/>
<rect x="58.2281" y="91.2106" width="28.4912" height="16.7895" fill="#212121"/>
</g>
<defs>
<clipPath id="clip0_7_92">
<rect width="183" height="108" fill="white"/>
</clipPath>
</defs>
</svg>
